<svg xmlns="http://www.w3.org/2000/svg" version="1.0" width="1081.000000pt" height="1280.000000pt" viewBox="0 0 1081.000000 1280.000000" preserveAspectRatio="xMidYMid meet"><script xmlns=""/>
<metadata>
Created by potrace 1.15, written by Peter Selinger 2001-2017
</metadata>
<g transform="translate(0.000000,1280.000000) scale(0.100000,-0.100000)" fill="#000000" stroke="none">
<path d="M0 6400 l0 -6400 5405 0 5405 0 0 6400 0 6400 -5405 0 -5405 0 0 -6400z m5062 5440 c526 -36 1192 -126 1583 -215 353 -80 739 -300 1430 -815 193 -144 288 -235 380 -365 64 -89 383 -616 530 -875 94 -167 358 -692 410 -818 45 -108 62 -126 293 -305 216 -168 206 -156 198 -230 -8 -64 -50 -321 -137 -817 -85 -494 -108 -626 -164 -975 -70 -429 -92 -567 -101 -630 -5 -39 -32 -93 -119 -240 -124 -211 -585 -998 -652 -1114 -23 -41 -58 -122 -78 -180 -34 -105 -315 -1126 -506 -1841 -126 -472 -160 -576 -206 -629 -19 -23 -75 -73 -125 -113 -157 -126 -900 -665 -977 -709 -90 -52 -146 -59 -258 -33 -43 10 -364 114 -713 232 -349 117 -803 270 -1009 339 l-374 126 -396 262 c-218 144 -524 346 -681 450 -246 162 -433 289 -464 316 -5 4 -16 40 -25 81 -14 61 -21 75 -43 86 -22 10 -372 133 -618 216 -55 18 -76 21 -135 14 -192 -20 -555 -50 -675 -55 l-135 -6 -60 64 c-96 102 -279 318 -294 346 -20 39 -7 104 43 213 71 152 88 219 116 458 19 166 29 183 316 547 205 260 250 333 239 385 -3 16 -30 66 -58 112 -46 74 -52 89 -53 143 -1 33 -2 65 -3 71 0 6 -22 26 -48 44 -27 19 -73 57 -103 86 -30 28 -80 66 -110 85 -87 52 -129 88 -150 130 -26 51 -25 93 4 156 46 98 103 146 331 279 151 87 245 184 231 239 -6 25 -30 36 -125 60 -112 28 -186 77 -221 145 -31 61 -60 180 -60 246 0 93 31 179 87 245 54 62 85 91 298 274 202 175 566 538 594 593 l22 43 -22 66 c-26 80 -77 139 -158 185 -91 51 -161 101 -249 177 -45 39 -102 83 -125 98 -129 82 -137 119 -44 207 63 61 190 158 244 187 17 9 48 41 70 70 22 30 86 116 144 192 220 293 194 242 279 544 72 259 168 490 389 933 191 385 272 497 434 603 182 119 613 356 822 453 247 114 316 141 395 159 69 16 386 19 592 5z"/>
<path d="M8012 9380 c-52 -27 -131 -72 -177 -100 -45 -28 -107 -57 -136 -64 -30 -8 -99 -28 -154 -45 -192 -61 -222 -64 -518 -46 -278 18 -316 16 -378 -15 -50 -26 -301 -215 -371 -279 -45 -42 -51 -52 -42 -68 6 -10 114 -102 240 -205 248 -203 314 -266 314 -297 0 -13 -23 -39 -65 -73 -36 -28 -65 -56 -65 -62 0 -6 48 -59 106 -116 58 -58 114 -117 125 -132 l20 -28 -47 -50 c-60 -64 -158 -130 -193 -130 -14 0 -49 17 -77 38 -53 38 -346 292 -536 465 -60 54 -116 97 -127 97 -22 0 -117 -91 -126 -121 -4 -13 9 -46 38 -97 74 -128 97 -180 97 -214 0 -18 -16 -71 -35 -118 -19 -46 -35 -98 -35 -116 0 -34 55 -128 315 -547 l130 -209 55 6 c65 7 509 96 662 132 96 23 122 35 248 109 314 187 412 240 449 239 47 -2 209 -66 388 -153 162 -79 259 -141 268 -172 8 -26 9 -5 -4 -448 l-11 -364 -97 -186 c-122 -236 -180 -334 -244 -413 -53 -66 -758 -808 -768 -808 -3 0 -170 -9 -371 -20 -359 -20 -434 -19 -465 4 -9 6 -25 47 -36 91 -12 44 -25 86 -31 93 -16 19 -49 15 -145 -19 -114 -41 -155 -62 -195 -102 -32 -32 -247 -325 -322 -438 -30 -46 -52 -65 -119 -103 -152 -86 -722 -374 -762 -385 -37 -11 -448 -40 -556 -41 -59 0 -94 23 -359 235 -107 86 -214 167 -238 181 l-43 25 -52 -30 c-28 -16 -85 -53 -125 -81 -59 -42 -71 -54 -63 -68 9 -18 103 -109 183 -178 46 -40 77 -88 65 -100 -16 -16 -371 -83 -947 -179 -184 -30 -347 -58 -361 -61 -36 -7 -61 19 -53 54 3 15 31 96 62 181 30 84 55 170 56 190 l1 36 -74 5 -74 5 -22 -35 c-12 -19 -81 -139 -153 -267 -189 -332 -181 -321 -216 -327 -17 -2 -101 -1 -186 3 l-155 7 -90 -71 c-132 -105 -145 -146 -52 -160 23 -3 214 5 424 19 l382 25 453 -162 453 -162 3 -103 3 -103 487 -323 c548 -363 879 -577 903 -583 23 -6 104 123 588 927 227 377 422 696 434 708 38 41 84 58 462 165 407 116 553 151 578 141 28 -10 20 -65 -22 -161 -21 -48 -111 -245 -201 -438 -89 -192 -254 -551 -366 -797 -112 -246 -242 -528 -288 -625 -81 -171 -90 -194 -87 -219 2 -25 465 -234 518 -234 37 0 67 68 185 408 115 330 146 405 176 421 28 15 185 -26 275 -71 36 -18 37 -20 37 -74 0 -30 -14 -162 -31 -292 -40 -313 -48 -452 -25 -471 9 -7 26 -11 39 -7 23 5 646 440 845 589 51 38 103 83 116 100 24 31 113 316 320 1022 46 160 121 414 166 565 45 151 99 334 120 405 143 483 137 470 431 970 407 691 463 793 497 910 35 117 217 1153 416 2363 3 19 -15 39 -90 107 -125 111 -393 329 -409 333 -7 2 -39 -6 -71 -17 -123 -41 -123 -41 -199 31 -38 34 -190 196 -339 358 -149 162 -309 334 -356 383 l-85 87 -93 -50z"/>
<path d="M1910 8756 c-37 -13 -100 -93 -100 -127 0 -24 429 -339 462 -339 29 0 38 25 38 104 0 104 -24 265 -42 283 -9 8 -51 18 -102 23 -71 7 -96 15 -135 39 -52 34 -68 36 -121 17z"/>
<path d="M4065 8737 c-16 -5 -82 -29 -145 -54 -233 -90 -495 -173 -649 -204 l-63 -13 -24 27 c-13 15 -26 43 -30 63 -4 20 -16 41 -29 50 -22 15 -31 14 -141 -11 -18 -4 -22 -15 -28 -69 -3 -36 -13 -84 -21 -107 -23 -64 -19 -95 34 -250 77 -224 79 -202 -28 -304 -50 -48 -93 -96 -96 -106 -7 -22 29 -90 82 -156 37 -46 42 -46 105 -5 53 34 79 25 128 -48 22 -33 46 -60 52 -60 23 0 144 40 163 54 11 8 24 35 30 63 l10 48 110 -2 c66 0 172 -12 265 -27 149 -26 159 -29 251 -81 52 -30 107 -55 122 -55 15 0 76 12 135 26 122 29 173 31 304 10 143 -22 218 -24 218 -5 0 7 -21 36 -46 65 l-45 54 22 69 c12 37 19 76 16 85 -10 24 -55 20 -164 -16 -82 -27 -114 -32 -193 -33 -90 0 -98 -2 -157 -35 l-62 -35 -183 92 c-137 68 -224 104 -347 143 -184 58 -215 78 -241 159 -13 41 -13 45 7 60 12 10 80 29 163 45 78 15 160 36 181 46 27 14 60 52 120 135 75 105 147 185 167 185 28 -1 37 -23 37 -87 l0 -68 80 -26 c139 -45 579 -153 598 -146 14 5 17 19 17 79 l0 73 -123 54 c-251 112 -305 141 -419 224 -145 106 -146 107 -183 94z"/>
<path d="M3691 7431 c-22 -14 -6 -50 58 -127 72 -85 131 -129 163 -121 34 9 116 66 171 119 81 77 62 92 -140 122 -122 18 -230 21 -252 7z"/>
<path d="M7805 6921 c-158 -84 -489 -273 -506 -287 -9 -8 -22 -42 -28 -75 -11 -54 -19 -67 -81 -133 -38 -40 -74 -85 -80 -101 -6 -15 -26 -113 -45 -217 -19 -104 -39 -207 -45 -228 -12 -45 -46 -73 -130 -110 -108 -47 -140 -86 -140 -167 0 -44 6 -55 37 -72 19 -10 33 -6 91 23 37 19 117 64 176 100 60 36 123 68 140 70 215 30 273 52 305 120 18 36 21 61 21 177 0 134 -8 179 -46 280 -10 25 -15 53 -11 62 4 10 44 28 106 47 130 40 182 76 251 174 63 91 82 106 108 90 15 -10 17 -31 17 -192 0 -221 1 -222 92 -200 l58 14 7 94 c4 52 7 165 9 250 2 167 -6 206 -52 249 -27 25 -131 81 -151 81 -7 0 -53 -22 -103 -49z"/>
<path d="M1745 6672 c-88 -2 -132 -7 -137 -15 -13 -21 -9 -85 7 -101 8 -8 39 -20 69 -26 30 -6 66 -20 80 -31 24 -19 26 -27 26 -94 0 -68 2 -75 26 -94 37 -29 120 -28 210 3 l69 23 165 -57 c91 -32 221 -79 290 -105 195 -74 328 -73 368 5 20 39 6 168 -22 198 -36 41 -73 54 -145 52 -36 -1 -73 -2 -82 -1 -9 1 -61 37 -115 81 -118 95 -213 146 -286 154 -72 7 -364 12 -523 8z"/>
<path d="M2025 5860 c-93 -48 -114 -49 -312 -19 -102 15 -159 19 -218 13 -111 -9 -256 -40 -274 -58 -14 -14 -13 -19 5 -43 11 -16 63 -57 115 -93 52 -36 137 -98 188 -137 52 -40 100 -73 108 -73 8 0 39 23 69 51 l54 52 150 -12 c95 -8 203 -10 295 -5 115 5 148 4 161 -7 9 -7 38 -46 65 -86 40 -59 56 -74 86 -82 21 -6 45 -11 54 -11 26 0 69 -40 69 -64 0 -25 -49 -76 -95 -99 -40 -20 -112 -33 -274 -52 -74 -8 -137 -17 -140 -20 -6 -7 12 -76 34 -128 15 -37 17 -38 58 -33 23 3 102 8 175 11 l132 6 64 -50 c108 -86 166 -98 254 -51 36 19 56 34 171 128 29 23 63 42 76 42 29 0 116 -74 216 -183 l77 -83 253 -11 c176 -8 257 -9 266 -1 10 8 9 17 -3 46 -21 51 -189 302 -262 394 -68 83 -195 206 -255 246 l-38 25 -27 -20 c-44 -33 -39 -54 28 -129 112 -125 150 -197 130 -250 -10 -26 -47 -39 -82 -29 -13 4 -124 109 -248 234 l-225 227 -69 -9 c-137 -17 -189 6 -366 163 -121 108 -176 148 -275 197 -95 48 -102 48 -190 3z"/>
<path d="M7210 5472 c-122 -63 -238 -127 -252 -140 -15 -12 -18 -31 -18 -99 0 -122 9 -122 183 -6 105 70 133 102 143 170 6 44 -1 93 -14 93 -4 0 -23 -8 -42 -18z"/>
<path d="M2123 4575 c-37 -16 -77 -68 -139 -181 -63 -116 -63 -118 40 -111 116 8 148 24 192 92 75 118 91 179 52 194 -48 18 -113 21 -145 6z"/>
<path d="M1865 4105 c-5 -2 -23 -6 -38 -9 -25 -6 -37 -24 -92 -139 -36 -73 -66 -143 -67 -157 -3 -21 1 -25 29 -28 56 -6 145 27 183 67 41 43 133 221 128 248 -3 15 -14 18 -68 20 -36 1 -69 0 -75 -2z"/>
</g>
</svg>